<svg width="31" height="34" viewBox="0 0 31 34" fill="none" xmlns="http://www.w3.org/2000/svg">
<path d="M28.4231 20.0095L30.9673 6.19696C31.151 5.19968 30.5367 4.25 29.7078 4.25H8.56849L8.07518 1.27434C7.95226 0.532645 7.42332 0 6.80972 0H1.29167C0.57829 0 0 0.713535 0 1.59375V2.65625C0 3.53646 0.57829 4.25 1.29167 4.25H5.05273L8.83344 27.0562C7.92895 27.698 7.31945 28.9015 7.31945 30.2812C7.31945 32.3351 8.66881 34 10.3333 34C11.9979 34 13.3472 32.3351 13.3472 30.2812C13.3472 29.2404 13.0003 28.3 12.4418 27.625H23.7249C23.1664 28.3 22.8194 29.2404 22.8194 30.2812C22.8194 32.3351 24.1688 34 25.8333 34C27.4979 34 28.8472 32.3351 28.8472 30.2812C28.8472 28.8089 28.1536 27.5365 27.1477 26.934L27.4446 25.322C27.6283 24.3247 27.0139 23.375 26.185 23.375H11.7389L11.3867 21.25H27.1636C27.7667 21.25 28.2895 20.7351 28.4231 20.0095Z" fill="#656565"/>
</svg>
