<svg width="30" height="39" viewBox="0 0 30 39" fill="none" xmlns="http://www.w3.org/2000/svg">
<path d="M25.0824 20.6093C25.0664 17.4139 26.3895 15.0021 29.0675 13.2258C27.5691 10.8837 25.3055 9.59505 22.3167 9.34255C19.4872 9.09875 16.3948 11.1449 15.263 11.1449C14.0675 11.1449 11.3257 9.42962 9.17375 9.42962C4.72636 9.50798 0 13.3042 0 21.0273C0 23.3085 0.382572 25.6652 1.14772 28.0973C2.16791 31.2927 5.85016 39.129 9.69182 38.9984C11.7003 38.9461 13.119 37.4398 15.7333 37.4398C18.2678 37.4398 19.5829 38.9984 21.8225 38.9984C25.6961 38.9374 29.0276 31.8152 30 28.611C24.8034 25.938 25.0824 20.7748 25.0824 20.6093ZM20.5712 6.31253C22.7471 3.49148 22.5478 0.922936 22.4841 0C20.5632 0.121897 18.3395 1.42794 17.0723 3.03872C15.6775 4.7627 14.8565 6.8959 15.0319 9.29901C17.1121 9.47315 19.009 8.30642 20.5712 6.31253Z" fill="#656565"/>
</svg>
