<svg width="30" height="35" viewBox="0 0 30 35" fill="none" xmlns="http://www.w3.org/2000/svg">
<path d="M29.592 30.2597L23.7498 23.445C23.4861 23.1374 23.1286 22.9665 22.7536 22.9665H21.7985C23.4158 20.5537 24.3768 17.5188 24.3768 14.2174C24.3768 6.36364 18.9213 0 12.1884 0C5.45548 0 0 6.36364 0 14.2174C0 22.0711 5.45548 28.4347 12.1884 28.4347C15.0187 28.4347 17.6204 27.3137 19.6889 25.4272V26.5414C19.6889 26.9788 19.8354 27.3958 20.0991 27.7033L25.9414 34.5181C26.4922 35.1606 27.3829 35.1606 27.9278 34.5181L29.5861 32.5837C30.137 31.9412 30.137 30.9023 29.592 30.2597ZM12.1884 22.9665C8.04551 22.9665 4.68784 19.0567 4.68784 14.2174C4.68784 9.38483 8.03965 5.46822 12.1884 5.46822C16.3313 5.46822 19.6889 9.37799 19.6889 14.2174C19.6889 19.0499 16.3371 22.9665 12.1884 22.9665Z" fill="#656565"/>
</svg>
